<svg width="36" height="36" viewBox="0 0 36 36" fill="none" xmlns="http://www.w3.org/2000/svg">
<g clip-path="url(#clip0_24_25)">
<path d="M27.66 15.61L18 6L8.33999 15.61C8.22602 15.6968 8.13202 15.8071 8.06437 15.9333C7.99671 16.0596 7.95698 16.1989 7.94786 16.3419C7.93874 16.4849 7.96044 16.6281 8.0115 16.762C8.06256 16.8958 8.14177 17.0172 8.24379 17.1177C8.34581 17.2183 8.46825 17.2958 8.60281 17.3449C8.73738 17.3941 8.88093 17.4137 9.02375 17.4025C9.16658 17.3914 9.30533 17.3497 9.43063 17.2802C9.55592 17.2108 9.66484 17.1152 9.74999 17L17 9.81V28.94C17 29.2052 17.1053 29.4596 17.2929 29.6471C17.4804 29.8346 17.7348 29.94 18 29.94C18.2652 29.94 18.5196 29.8346 18.7071 29.6471C18.8946 29.4596 19 29.2052 19 28.94V9.81L26.25 17C26.4383 17.187 26.6932 17.2915 26.9585 17.2906C27.2239 17.2896 27.478 17.1833 27.665 16.995C27.852 16.8067 27.9565 16.5518 27.9555 16.2865C27.9546 16.0211 27.8483 15.767 27.66 15.58V15.61Z" fill="#9747FF"/>
</g>
<defs>
<clipPath id="clip0_24_25">
<rect width="36" height="36" fill="white"/>
</clipPath>
</defs>
</svg>
