<svg width="36" height="36" viewBox="0 0 36 36" fill="none" xmlns="http://www.w3.org/2000/svg">
<g clip-path="url(#clip0_24_22)">
<path d="M13.72 27.69L3.29002 17.27C3.12619 17.0787 3.04059 16.8326 3.05031 16.5809C3.06003 16.3293 3.16436 16.0905 3.34245 15.9124C3.52055 15.7343 3.75929 15.63 4.01096 15.6203C4.26264 15.6106 4.50872 15.6962 4.70002 15.86L13.7 24.86L31.29 7.29C31.4813 7.12618 31.7274 7.04057 31.9791 7.05029C32.2307 7.06001 32.4695 7.16434 32.6476 7.34244C32.8257 7.52053 32.93 7.75927 32.9397 8.01095C32.9495 8.26262 32.8638 8.5087 32.7 8.7L13.72 27.69Z" fill="#4ECB71"/>
</g>
<defs>
<clipPath id="clip0_24_22">
<rect width="36" height="36" fill="white"/>
</clipPath>
</defs>
</svg>
