<svg width="54" height="54" viewBox="0 0 54 54" fill="none" xmlns="http://www.w3.org/2000/svg">
<path d="M20.0962 19.6272V33.9625C20.0962 34.9896 20.5651 35.7712 21.5029 36.307C22.4407 36.8429 23.3562 36.7983 24.2494 36.1731L35.3692 29.0724C36.2177 28.5365 36.642 27.7773 36.642 26.7949C36.642 25.8124 36.2177 25.0532 35.3692 24.5173L24.2494 17.4167C23.3562 16.7915 22.4407 16.7468 21.5029 17.2827C20.5651 17.8186 20.0962 18.6001 20.0962 19.6272ZM26.7949 53.5897C23.0882 53.5897 19.6049 52.8859 16.3449 51.4783C13.0848 50.0725 10.249 48.1638 7.8375 45.7522C5.42596 43.3407 3.51727 40.5049 2.11144 37.2449C0.703812 33.9848 0 30.5015 0 26.7949C0 23.0882 0.703812 19.6049 2.11144 16.3449C3.51727 13.0848 5.42596 10.249 7.8375 7.8375C10.249 5.42596 13.0848 3.51638 16.3449 2.10876C19.6049 0.702919 23.0882 0 26.7949 0C30.5015 0 33.9848 0.702919 37.2449 2.10876C40.5049 3.51638 43.3407 5.42596 45.7522 7.8375C48.1638 10.249 50.0725 13.0848 51.4783 16.3449C52.8859 19.6049 53.5897 23.0882 53.5897 26.7949C53.5897 30.5015 52.8859 33.9848 51.4783 37.2449C50.0725 40.5049 48.1638 43.3407 45.7522 45.7522C43.3407 48.1638 40.5049 50.0725 37.2449 51.4783C33.9848 52.8859 30.5015 53.5897 26.7949 53.5897Z" fill="#44DABE"/>
</svg>
